<svg width="53" height="62" viewBox="0 0 53 62" fill="none" xmlns="http://www.w3.org/2000/svg">
<path d="M38.7756 30.8221C38.794 24.6081 35.4285 18.8384 29.4974 14.8269C31.3063 13.3132 32.8359 11.59 34.0022 9.7316C35.8127 6.84722 36.7695 3.619 36.7695 0.395996H33.2133C33.2133 1.84844 32.9744 3.27527 32.5164 4.65114H20.2492C19.7911 3.27539 19.5523 1.84844 19.5523 0.395996H15.996C15.996 3.619 16.9529 6.84722 18.7634 9.7316C19.9297 11.5899 21.4592 13.313 23.2683 14.8269C17.3373 18.8384 13.9717 24.608 13.9901 30.8221C14.0083 37.0051 17.3699 42.733 23.266 46.7201C21.4778 48.2166 19.9634 49.9175 18.8024 51.7521C16.9665 54.653 15.9961 57.9026 15.9961 61.1494H19.5524C19.5524 59.7411 19.777 58.3578 20.207 57.022H32.559C32.9889 58.3577 33.2135 59.7411 33.2135 61.1494H36.7698C36.7698 57.9025 35.7994 54.6529 33.9636 51.7521C32.8026 49.9175 31.2881 48.2166 29.4999 46.7201C35.3958 42.7329 38.7574 37.0051 38.7756 30.8221ZM17.6676 32.5506H35.098C34.9154 33.906 34.5264 35.2285 33.943 36.4955H18.8226C18.2393 35.2285 17.8501 33.906 17.6676 32.5506ZM35.0982 28.9947H17.6673C17.85 27.6398 18.2383 26.3172 18.8222 25.0498H33.9434C34.5272 26.3172 34.9156 27.6398 35.0982 28.9947ZM30.7648 8.20698C29.652 9.87905 28.1785 11.4193 26.3828 12.7669C24.5872 11.4193 23.1137 9.87916 22.0008 8.20698H30.7648ZM26.1794 17.1795L26.3828 17.0553L26.5864 17.1796C28.617 18.4199 30.3255 19.8797 31.6739 21.4939H21.0916C22.44 19.8796 24.1487 18.4198 26.1794 17.1795ZM21.914 53.4662C23.0365 51.744 24.5395 50.1592 26.3828 48.7768C28.2262 50.159 29.7291 51.744 30.8517 53.4662H21.914ZM26.468 44.4387C26.4393 44.456 26.4114 44.4741 26.3828 44.4915C26.3543 44.4741 26.3264 44.456 26.2976 44.4387C24.2142 43.183 22.4635 41.6981 21.0886 40.0515H31.677C30.3021 41.6979 28.5513 43.183 26.468 44.4387Z" fill="#009AFF"/>
<path d="M8.00227 52.4341C7.0722 52.4341 6.18112 53.2519 6.22415 54.2122C6.2673 55.1756 7.00546 55.9903 8.00227 55.9903C8.93235 55.9903 9.82342 55.1725 9.78039 54.2122C9.73724 53.2488 8.99921 52.4341 8.00227 52.4341Z" fill="#009AFF"/>
<path d="M11.3782 10.855C10.4482 10.855 9.5571 11.6728 9.60013 12.6331C9.64328 13.5965 10.3814 14.4112 11.3782 14.4112C12.3083 14.4112 13.1994 13.5934 13.1564 12.6331C13.1132 11.6697 12.3751 10.855 11.3782 10.855Z" fill="#009AFF"/>
<path d="M1.77962 28.2764C0.849542 28.2764 -0.0415327 29.0942 0.0014978 30.0545C0.0446468 31.0179 0.782803 31.8326 1.77962 31.8326C2.70969 31.8326 3.60076 31.0148 3.55773 30.0545C3.51459 29.0911 2.77643 28.2764 1.77962 28.2764Z" fill="#009AFF"/>
<path d="M44.9974 52.4341C44.0673 52.4341 43.1762 53.2519 43.2193 54.2122C43.2624 55.1756 44.0006 55.9903 44.9974 55.9903C45.9275 55.9903 46.8185 55.1725 46.7755 54.2122C46.7324 53.2488 45.9942 52.4341 44.9974 52.4341Z" fill="#009AFF"/>
<path d="M41.6214 10.855C40.6913 10.855 39.8003 11.6728 39.8433 12.6331C39.8864 13.5965 40.6246 14.4112 41.6214 14.4112C42.5515 14.4112 43.4426 13.5934 43.3995 12.6331C43.3564 11.6697 42.6183 10.855 41.6214 10.855Z" fill="#009AFF"/>
<path d="M51.2203 28.2764C50.2902 28.2764 49.3991 29.0942 49.4422 30.0545C49.4853 31.0179 50.2235 31.8326 51.2203 31.8326C52.1504 31.8326 53.0414 31.0148 52.9984 30.0545C52.9553 29.0911 52.2171 28.2764 51.2203 28.2764Z" fill="#009AFF"/>
</svg>
