<svg width="60" height="60" viewBox="0 0 60 60" fill="none" xmlns="http://www.w3.org/2000/svg">
<path d="M28.2424 3.8801C28.2424 1.96384 26.6603 0.395996 24.7267 0.395996C22.7931 0.395996 21.2111 1.96384 21.2111 3.8801V17.9327C21.2111 18.6291 21.075 19.2889 20.8809 19.9248C23.076 21.3457 24.7577 23.445 25.6826 25.9165C27.2852 23.653 28.2424 20.9089 28.2424 17.9327V3.8801Z" fill="#009AFF"/>
<path d="M7.36151 19.9248C7.16733 19.2889 7.03128 18.6291 7.03128 17.9327V3.8801C7.03128 1.96384 5.44924 0.395996 3.51564 0.395996C1.58204 0.395996 0 1.96384 0 3.8801V17.9327C0 20.9089 0.957191 23.653 2.55974 25.9165C3.4847 23.4451 5.16635 21.3457 7.36151 19.9248Z" fill="#009AFF"/>
<path d="M3.51564 59.8589C5.44924 59.8589 7.03128 58.291 7.03128 56.3747V42.3219C7.03128 41.6254 7.16733 40.9656 7.36151 40.3297C5.16635 38.9088 3.4847 36.8094 2.55974 34.3379C0.957191 36.6014 0 39.3456 0 42.3219V56.3747C0 58.291 1.58204 59.8589 3.51564 59.8589Z" fill="#009AFF"/>
<path d="M24.7267 59.8589C26.6603 59.8589 28.2424 58.291 28.2424 56.3747V42.3219C28.2424 39.3456 27.2852 36.6014 25.6826 34.3379C24.7576 36.8094 23.0759 38.9088 20.8809 40.3297C21.075 40.9656 21.2111 41.6254 21.2111 42.3219V56.3747C21.2111 58.291 22.7931 59.8589 24.7267 59.8589Z" fill="#009AFF"/>
<path d="M14.1797 21.417C9.33365 21.417 5.27344 25.3246 5.27344 30.1272C5.27344 34.9298 9.33365 38.8374 14.1797 38.8374C19.0258 38.8374 22.9688 34.9298 22.9688 30.1272C22.9688 25.3246 19.0258 21.417 14.1797 21.417ZM14.1797 31.8692C13.2099 31.8692 12.4219 31.0883 12.4219 30.1272C12.4219 29.1661 13.2099 28.3852 14.1797 28.3852C15.1496 28.3852 15.9375 29.1661 15.9375 30.1272C15.9375 31.0883 15.1496 31.8692 14.1797 31.8692Z" fill="#009AFF"/>
<path d="M56.4848 0.395996C54.5512 0.395996 52.9692 1.96384 52.9692 3.8801V17.9327C52.9692 18.6291 52.8331 19.2889 52.6389 19.9248C54.8341 21.3457 56.5157 23.445 57.4407 25.9165C59.0432 23.653 60.0004 20.9089 60.0004 17.9327V3.8801C60.0004 1.96384 58.4184 0.395996 56.4848 0.395996Z" fill="#009AFF"/>
<path d="M35.2737 0.395996C33.3401 0.395996 31.7581 1.96384 31.7581 3.8801V17.9327C31.7581 20.9089 32.7152 23.653 34.3178 25.9165C35.2429 23.445 36.9245 21.3457 39.1196 19.9248C38.9254 19.2889 38.7893 18.6291 38.7893 17.9327V3.8801C38.7893 1.96384 37.2073 0.395996 35.2737 0.395996V0.395996Z" fill="#009AFF"/>
<path d="M31.7581 56.3747C31.7581 58.291 33.3401 59.8589 35.2737 59.8589C37.2073 59.8589 38.7893 58.291 38.7893 56.3747V42.3219C38.7893 41.6254 38.9254 40.9656 39.1196 40.3297C36.9244 38.9088 35.2428 36.8094 34.3178 34.3379C32.7152 36.6014 31.7581 39.3456 31.7581 42.3219V56.3747Z" fill="#009AFF"/>
<path d="M52.6389 40.3297C52.8331 40.9656 52.9692 41.6254 52.9692 42.3219V56.3747C52.9692 58.291 54.5512 59.8589 56.4848 59.8589C58.4184 59.8589 60.0004 58.291 60.0004 56.3747V42.3219C60.0004 39.3456 59.0432 36.6014 57.4407 34.3379C56.5157 36.8093 54.8341 38.9088 52.6389 40.3297Z" fill="#009AFF"/>
<path d="M45.8206 38.8374C50.6667 38.8374 54.7269 34.9298 54.7269 30.1272C54.7269 25.3246 50.6667 21.417 45.8206 21.417C40.9745 21.417 37.0315 25.3246 37.0315 30.1272C37.0315 34.9298 40.9745 38.8374 45.8206 38.8374ZM45.8206 28.3852C46.7905 28.3852 47.5784 29.1661 47.5784 30.1272C47.5784 31.0883 46.7905 31.8692 45.8206 31.8692C44.8508 31.8692 44.0628 31.0883 44.0628 30.1272C44.0628 29.1661 44.8508 28.3852 45.8206 28.3852Z" fill="#009AFF"/>
</svg>
