<svg width="61" height="57" viewBox="0 0 61 57" fill="none" xmlns="http://www.w3.org/2000/svg">
<path d="M57.3436 18.0676C57.3494 17.9183 57.3548 17.7685 57.3548 17.6177C57.3548 11.4219 52.3313 6.39893 46.1348 6.39893C45.5307 6.39893 44.9378 6.44788 44.3591 6.53991C42.3636 3.43392 38.8808 1.37402 34.9148 1.37402C31.1196 1.37402 27.767 3.25965 25.7367 6.1434C24.0541 5.13646 22.0865 4.55638 19.9833 4.55638C13.7867 4.55638 8.76322 9.57933 8.76322 15.7752C4.24788 17.2266 0.979492 21.459 0.979492 26.456C0.979492 30.1249 2.74147 33.3827 5.46545 35.4293C5.67597 41.4401 10.6123 46.2496 16.6752 46.2496C17.4448 46.2496 18.1963 46.1718 18.9224 46.024V55.666H23.6947C23.6947 55.666 24.6386 47.378 31.8823 41.2345C32.6691 41.3745 33.4759 41.4553 34.3028 41.4553C38.8181 41.4553 42.8238 39.2765 45.327 35.9135C46.3884 36.2463 47.5178 36.4265 48.6889 36.4265C54.8854 36.4265 59.9089 31.4035 59.9089 25.2077C59.9089 22.4953 58.9459 20.0075 57.3436 18.0676Z" fill="#009AFF"/>
<path d="M23.6944 56.646H18.922C18.381 56.646 17.9428 56.2079 17.9428 55.667V47.1635C17.5223 47.207 17.0983 47.2291 16.6749 47.2291C10.2262 47.2291 4.96966 42.302 4.51093 35.9275C1.63762 33.5988 0 30.1731 0 26.4567C0 21.372 3.10781 16.8836 7.8033 15.0763C8.16706 8.67479 13.4912 3.57789 19.9829 3.57789C21.8942 3.57789 23.7732 4.0258 25.4681 4.87953C27.7769 2.05695 31.2465 0.395508 34.9149 0.395508C38.875 0.395508 42.5361 2.28849 44.8297 5.49045C45.2644 5.44346 45.7016 5.41996 46.1349 5.41996C52.8616 5.41996 58.3341 10.8918 58.3341 17.6179C58.3341 17.658 58.3336 17.6977 58.3331 17.7373C59.9834 19.8667 60.8882 22.5043 60.8882 25.2079C60.8882 31.9339 55.4157 37.4058 48.689 37.4058C47.6741 37.4058 46.669 37.281 45.6933 37.0348C42.9116 40.4281 38.7032 42.4352 34.3024 42.4352C33.6106 42.4352 32.8973 42.3813 32.1767 42.2751C25.6399 48.0475 24.6764 55.7012 24.6671 55.779C24.6094 56.2725 24.1908 56.646 23.6944 56.646ZM19.9011 54.6879H22.8626C23.3188 52.3318 25.098 45.7052 31.2485 40.4883C31.4712 40.2999 31.7664 40.2211 32.0533 40.271C32.8195 40.4076 33.5764 40.4766 34.3019 40.4766C38.3737 40.4766 42.1057 38.6007 44.5409 35.3288C44.79 34.9949 45.2238 34.8549 45.6194 34.9793C46.6098 35.2896 47.6418 35.4472 48.6885 35.4472C54.3352 35.4472 58.9294 30.8536 58.9294 25.2074C58.9294 22.8327 58.0976 20.5183 56.5878 18.6909C56.4345 18.5049 56.3547 18.2689 56.3645 18.0281C56.3699 17.892 56.3753 17.7554 56.3753 17.6179C56.3753 11.9717 51.7811 7.37805 46.1344 7.37805C45.5959 7.37805 45.05 7.42113 44.513 7.50679C44.1277 7.56651 43.7453 7.39616 43.5353 7.06916C41.6382 4.11637 38.4153 2.3536 34.9149 2.3536C31.5892 2.3536 28.4574 3.98126 26.5373 6.7074C26.2421 7.12643 25.6737 7.24735 25.2336 6.98349C23.6508 6.03627 21.8354 5.53549 19.9829 5.53549C14.3357 5.53549 9.74201 10.1292 9.74201 15.7753C9.74201 16.2007 9.46736 16.5771 9.06248 16.7074C4.81299 18.0736 1.95829 21.9908 1.95829 26.4562C1.95829 29.7061 3.451 32.6912 6.05308 34.6469C6.28954 34.8246 6.43299 35.0997 6.44327 35.3954C6.63714 40.9328 11.1309 45.2705 16.6744 45.2705C17.3652 45.2705 18.0554 45.201 18.7262 45.0649C19.014 45.0066 19.3137 45.0801 19.5413 45.2661C19.769 45.4521 19.9007 45.7301 19.9007 46.0243V54.6879H19.9011Z" fill="#009AFF"/>
<path d="M38.5796 10.8008H26.5733L19.5029 27.0742H30.5756L25.1061 40.4233L41.381 20.6591H33.5106L38.5796 10.8008Z" fill="white"/>
<path d="M25.1072 41.4023C24.9353 41.4023 24.7616 41.3573 24.6054 41.2638C24.1897 41.0151 24.0184 40.5007 24.202 40.0523L29.1183 28.0533H19.5045C19.1745 28.0533 18.8666 27.8873 18.6859 27.6112C18.5048 27.3356 18.4749 26.9871 18.6066 26.6841L25.6771 10.4107C25.8322 10.0533 26.1852 9.82178 26.5749 9.82178H38.5813C38.9225 9.82178 39.2393 9.99947 39.417 10.2907C39.5947 10.582 39.6084 10.9447 39.4522 11.2487L35.1165 19.6806H41.3831C41.762 19.6806 42.1072 19.8989 42.2687 20.2416C42.4308 20.5843 42.3804 20.9891 42.139 21.2818L25.8636 41.046C25.6717 41.2785 25.3916 41.4023 25.1072 41.4023ZM20.9977 26.0952H30.5772C30.9033 26.0952 31.2088 26.2577 31.3904 26.5289C31.5725 26.7996 31.6073 27.1438 31.4834 27.4458L28.4701 34.8007L39.3088 21.6387H33.5122C33.171 21.6387 32.8542 21.461 32.6765 21.1697C32.4988 20.8785 32.4851 20.5157 32.6413 20.2122L36.9769 11.7803H27.2173L20.9977 26.0952Z" fill="white"/>
</svg>
