<svg width="20" height="5" viewBox="0 0 20 5" fill="none" xmlns="http://www.w3.org/2000/svg">
<path d="M17.6703 0.677087C18.5083 0.677283 19.1854 1.35428 19.1856 2.19214C19.1856 2.60999 19.0162 2.9892 18.7418 3.26365C18.4675 3.5379 18.0882 3.7072 17.6703 3.7072L11.2305 3.707L11.2305 3.82444C11.2305 4.24229 11.5048 3.3717 11.2305 3.64595C10.956 3.9204 10.1889 3.707 9.77103 3.707C8.93306 3.7068 9.12093 4.54506 9.12073 3.7072L8.20037 3.707L1.76052 3.70719C0.922552 3.707 0.245468 3.03 0.245271 2.19214C0.245468 1.35428 0.922551 0.677281 1.76052 0.677084L8.20037 0.677282L9.50063 0.977616C9.50082 0.139756 7.6626 0.677281 8.50056 0.677084C9.33853 0.677281 9.0004 -0.160777 9.0006 0.677084L11.2305 0.677282L17.6703 0.677087Z" fill="#FAFAFA"/>
</svg>
