<svg width="8" height="15" viewBox="0 0 8 15" fill="none" xmlns="http://www.w3.org/2000/svg">
<path d="M5.31171 7.63022L0.217438 12.8672C0.0771669 13.011 1.30557e-06 13.2034 1.3235e-06 13.4084C1.34144e-06 13.6136 0.077167 13.8059 0.217438 13.9499L0.663825 14.4086C0.803875 14.5529 0.991088 14.6323 1.19059 14.6323C1.39009 14.6323 1.57708 14.5529 1.71724 14.4086L7.78278 8.17354C7.92349 8.029 8.00055 7.83587 8 7.63056C8.00055 7.42434 7.92361 7.23144 7.78278 7.08679L1.72289 0.85778C1.58273 0.713472 1.39574 0.634035 1.19612 0.634035C0.996623 0.634035 0.809632 0.713472 0.66936 0.85778L0.223083 1.31642C-0.0673124 1.61494 -0.0673124 2.1009 0.223083 2.3993L5.31171 7.63022Z" fill="white"/>
</svg>
