<svg width="20" height="19" viewBox="0 0 20 19" fill="none" xmlns="http://www.w3.org/2000/svg">
<path d="M17.6703 7.97079C18.5083 7.97098 19.1854 8.64798 19.1856 9.48584C19.1856 9.90369 19.0162 10.2829 18.7418 10.5573C18.4675 10.8316 18.0882 11.0009 17.6703 11.0009L11.2305 11.0007L11.2307 17.4397C11.2307 17.8576 11.0613 18.2368 10.7871 18.511C10.5126 18.7855 10.1333 18.9548 9.71542 18.9548C8.87745 18.9546 8.20037 18.2776 8.20017 17.4397L8.20037 11.0007L1.76052 11.0009C0.922552 11.0007 0.245468 10.3237 0.245271 9.48584C0.245468 8.64798 0.922551 7.97098 1.76052 7.97079L8.20037 7.97098L8.20017 1.53195C8.20037 0.694091 8.87745 0.0170931 9.71542 0.016897C10.5534 0.0170933 11.2305 0.694091 11.2307 1.53195L11.2305 7.97098L17.6703 7.97079Z" fill="#FAFAFA"/>
</svg>
