<svg width="8" height="15" viewBox="0 0 8 15" fill="none" xmlns="http://www.w3.org/2000/svg">
<path d="M2.68829 7.63601L7.78256 2.39897C7.92283 2.25511 8 2.06278 8 1.85769C8 1.65249 7.92283 1.46027 7.78256 1.31619L7.33617 0.857537C7.19612 0.713227 7.00891 0.633788 6.80941 0.633788C6.60991 0.633788 6.42292 0.713227 6.28276 0.857537L0.21722 7.09269C0.0765056 7.23723 -0.000549402 7.43036 4.19048e-06 7.63567C-0.00054933 7.8419 0.076395 8.0348 0.21722 8.17945L6.27711 14.4086C6.41727 14.5529 6.60426 14.6323 6.80388 14.6323C7.00338 14.6323 7.19037 14.5529 7.33064 14.4086L7.77692 13.9499C8.06731 13.6514 8.06731 13.1654 7.77692 12.867L2.68829 7.63601Z" fill="white"/>
</svg>
