<svg width="146" height="125" viewBox="0 0 146 125" fill="none" xmlns="http://www.w3.org/2000/svg">
<path fill-rule="evenodd" clip-rule="evenodd" d="M22.2263 125C22.6685 122.887 23.1938 120.876 23.7941 118.999C24.6079 116.456 25.7136 113.948 27.0793 111.544C28.496 109.05 30.1631 106.878 32.0318 105.089C33.9887 103.216 36.3833 101.712 39.1494 100.617C41.9068 99.5249 44.9627 98.9712 48.2336 98.9712C49.5178 98.9712 50.7607 99.4981 53.1563 101.06C54.6545 102.036 56.382 103.149 58.291 104.369C59.937 105.419 62.1694 106.403 64.924 107.292C67.6171 108.163 70.3476 108.604 73.0436 108.604C75.7396 108.604 78.4711 108.163 81.1613 107.292C83.9188 106.402 86.1512 105.418 87.7991 104.368C89.7263 103.137 91.4529 102.023 92.9291 101.061C95.3275 99.499 96.5695 98.9721 97.8536 98.9721C101.124 98.9721 104.18 99.5249 106.939 100.616C109.707 101.713 112.1 103.217 114.055 105.088C115.925 106.876 117.591 109.049 119.01 111.544C120.377 113.948 121.482 116.457 122.295 118.998C122.841 120.701 123.324 122.516 123.739 124.417C137.092 111.238 145.368 92.9271 145.368 72.6838C145.368 32.5416 112.826 0 72.6838 0C32.5416 0 0 32.5416 0 72.6838C0 93.2276 8.52316 111.781 22.2263 125ZM72.2529 98.8032C80.5779 98.8032 87.7867 95.8174 93.6768 89.9263C99.5669 84.0362 102.553 76.8294 102.553 68.5034C102.553 60.1803 99.5669 52.9725 93.6758 47.0805C87.7848 41.1914 80.5769 38.2055 72.2529 38.2055C63.9269 38.2055 56.72 41.1914 50.8299 47.0814C44.9398 52.9715 41.953 60.1794 41.953 68.5034C41.953 76.8294 44.9398 84.0372 50.8308 89.9273C56.7219 95.8164 63.9298 98.8032 72.2529 98.8032Z" fill="#C4C4C4"/>
</svg>
